<?xml version="1.0" encoding="UTF-8" standalone="no"?>
<!-- Created with Inkscape (http://www.inkscape.org/) -->

<svg
   width="20.743446mm"
   height="7.7810946mm"
   viewBox="0 0 20.743446 7.7810946"
   version="1.1"
   id="svg5"
   xmlns="http://www.w3.org/2000/svg"
   xmlns:svg="http://www.w3.org/2000/svg">
  <defs
     id="defs2" />
  <g
     id="layer1"
     transform="translate(-2.233754,-1.1730986)">
    <path
       id="path44328"
       style="fill:#ffffff;fill-opacity:1;stroke:none;stroke-width:0.0171979;stroke-linecap:butt;stroke-linejoin:miter;stroke-miterlimit:4;stroke-dasharray:none;stroke-opacity:1"
       d="m 7.8632812,39.28125 c -0.3280609,-8.67e-4 -0.5585937,0.0293 -0.5585937,0.0293 A 0.69608192,0.69608192 0 0 0 6.7050781,40 V 60 A 0.69608192,0.69608192 0 0 0 6.9921875,60.332031 0.69608192,0.69608192 0 0 0 6.3242188,61 v 1 a 0.69608192,0.69608192 0 0 0 0.6953124,0.695312 H 35.015625 V 65 c 0,1.654716 0.643982,2.742115 1.548828,3.234375 0.904846,0.49226 1.893865,0.455078 2.638672,0.455078 0.753386,0 1.745493,0.037 2.652344,-0.455078 C 42.762319,67.742298 43.406249,66.654628 43.40625,65 v -5 -1.855469 c 0.06351,0.351056 0.151546,0.721977 0.371094,1.087891 0.501386,0.835645 1.567986,1.462891 3.222656,1.46289 h 1 c 1.732004,0 2.790043,-0.968757 3.248047,-1.884765 0.07806,-0.15612 0.02291,-0.158009 0.07617,-0.308594 V 60 a 0.69608192,0.69608192 0 0 0 0.695312,0.695312 h 1 A 0.69608192,0.69608192 0 0 0 53.714844,60 V 46.613281 l 0.658203,1.644531 a 0.69608192,0.69608192 0 0 0 1.292969,0 l 0.658203,-1.644531 V 60 a 0.69608192,0.69608192 0 0 0 0.695312,0.695312 h 1 A 0.69608192,0.69608192 0 0 0 58.714844,60 v -1.007812 c 0.0391,0.08155 0.03354,0.159422 0.08203,0.240234 0.501386,0.835645 1.567986,1.462891 3.222656,1.46289 h 1 c 1.732004,0 2.790043,-0.968757 3.248047,-1.884765 0.05782,-0.115635 0.01277,-0.115301 0.05664,-0.228516 V 60 a 0.69608192,0.69608192 0 0 0 0.695312,0.695312 h 1 a 0.69608192,0.69608192 0 0 0 0.5,-0.5 0.69608192,0.69608192 0 0 0 0.5,0.5 h 1 A 0.69608192,0.69608192 0 0 0 70.714844,60 v -5.849609 c 0.02273,-0.06536 0.217365,-0.637572 0.634765,-1.263672 0.440604,-0.660905 1.017928,-1.191407 1.669922,-1.191407 0.767997,0 0.959958,0.281244 1.126953,0.615235 C 74.31348,52.644538 74.324219,53 74.324219,53 v 1 a 0.69608192,0.69608192 0 0 0 0.5,0.5 0.69608192,0.69608192 0 0 0 -0.5,0.5 v 5 a 0.69608192,0.69608192 0 0 0 0.695312,0.695312 h 1 a 0.69608192,0.69608192 0 0 0 0.304688,-0.304687 V 65 c 2e-6,1.654718 0.643982,2.742115 1.548828,3.234375 0.904846,0.49226 1.893866,0.455078 2.638672,0.455078 0.753386,0 1.745493,0.037 2.652343,-0.455078 C 84.070913,67.742298 84.714844,66.654628 84.714844,65 l 0.0059,-5.482422 0.0039,-1.484375 c 0.004,-1.141208 -0.312511,-1.935212 -0.673828,-2.431641 -0.04735,-0.06506 -0.05968,-0.03786 -0.109375,-0.09375 0.04847,-0.05618 0.05916,-0.03061 0.105469,-0.0957 C 84.400226,54.915369 84.714844,54.125062 84.714844,53 v -3 a 0.69608192,0.69608192 0 0 0 -0.5,-0.5 0.69608192,0.69608192 0 0 0 0.5,-0.5 V 48 A 0.69608192,0.69608192 0 0 0 84.019531,47.304688 H 68.714844 V 40 a 0.69608192,0.69608192 0 0 0 -0.695313,-0.695312 h -1 A 0.69608192,0.69608192 0 0 0 66.324219,40 v 7.304688 h -7.304688 a 0.69608192,0.69608192 0 0 0 -0.304687,0.304687 V 40 a 0.69608192,0.69608192 0 0 0 -0.695313,-0.695312 h -1 a 0.69608192,0.69608192 0 0 0 -0.660156,0.474609 l -1.339844,4.019531 -1.339843,-4.019531 a 0.69608192,0.69608192 0 0 0 -0.660157,-0.474609 h -1 A 0.69608192,0.69608192 0 0 0 51.324219,40 v 11.371094 c -0.02973,-0.08451 -0.02338,-0.187361 -0.05859,-0.269532 C 51.030854,50.553762 50.631897,50.060909 50.072266,49.75 49.512635,49.439091 48.827335,49.304688 48,49.304688 h -1 c -1.65467,0 -2.72127,0.627245 -3.222656,1.46289 -0.219548,0.365914 -0.307585,0.736835 -0.371094,1.087891 V 50 a 0.69608192,0.69608192 0 0 0 -0.695312,-0.695312 h -1 A 0.69608192,0.69608192 0 0 0 41.015625,50 v 7 c 0,0.597725 -0.457075,1.26655 -1.796875,1.302734 -0.749114,-9.17e-4 -1.282167,-0.05004 -1.472656,-0.158203 -0.09613,-0.05458 -0.146343,-0.0967 -0.212891,-0.255859 C 37.466655,57.729515 37.406253,57.441941 37.40625,57 v -7 a 0.69608192,0.69608192 0 0 0 -0.695312,-0.695312 h -1 A 0.69608192,0.69608192 0 0 0 35.015625,50 v 7 c 0,0.525425 0.159374,0.894383 0.277344,1.304688 h -5.267578 v -8.609376 h 2.304687 A 0.69608192,0.69608192 0 0 0 33.025391,49 v -1 a 0.69608192,0.69608192 0 0 0 -0.695313,-0.695312 h -2.304687 v -5.609376 h 5.304687 A 0.69608192,0.69608192 0 0 0 36.025391,41 v -1 a 0.69608192,0.69608192 0 0 0 -0.695313,-0.695312 h -7 A 0.69608192,0.69608192 0 0 0 27.634766,40 v 10.726562 c -0.195731,-0.265871 -1.108747,-1.425452 -3.085938,-1.421874 -1.866308,0.0033 -3.177969,1.241318 -3.539062,2.789062 -0.132119,-0.303765 -0.224561,-0.639873 -0.398438,-0.904297 -0.684132,-1.040399 -1.729118,-1.737961 -2.84375,-1.738281 -1.080934,3.1e-4 -2.083237,0.673545 -2.767578,1.662109 0.01999,-0.390931 0.0957,-0.691047 0.0957,-1.113281 0,-4.765121 -1.297467,-7.497239 -2.90625,-9 C 10.58067,39.497239 8.7499371,39.283597 7.8632812,39.28125 Z m 1.2324219,2.572266 c 0.3665312,0.122214 0.8317813,0.331802 1.3398439,0.789062 1.078508,0.970665 2.269531,2.986348 2.269531,7.357422 0,4.371072 -1.191022,6.386756 -2.269531,7.357422 -0.5080627,0.45726 -0.9733126,0.666847 -1.3398439,0.789062 z m 49.6191409,7.537109 a 0.69608192,0.69608192 0 0 0 0.304687,0.304687 h 1.089844 c -0.590781,0.263561 -1.045505,0.627274 -1.3125,1.072266 -0.04849,0.08081 -0.04293,0.158682 -0.08203,0.240234 z m 6.123047,0.304687 h 1.486328 v 1.585938 c -0.02101,-0.05582 -0.01559,-0.124907 -0.03906,-0.179688 -0.234771,-0.5478 -0.633728,-1.040653 -1.193359,-1.351562 -0.06858,-0.0381 -0.181523,-0.02177 -0.253906,-0.05469 z m 5.572265,0 h 0.976563 c -0.268604,0.135176 -0.458929,0.317291 -0.671875,0.488282 V 50 a 0.69608192,0.69608192 0 0 0 -0.304688,-0.304688 z m 4.267578,0 h 1.951172 A 0.69608192,0.69608192 0 0 0 76.324219,50 v 1.417969 c -0.04388,-0.113215 0.0012,-0.112881 -0.05664,-0.228516 -0.283713,-0.567426 -0.828212,-1.12905 -1.589844,-1.494141 z m 3.732422,0 h 4.21875 A 0.69608192,0.69608192 0 0 0 82.324219,50 v 3 c -10e-7,0.442049 -0.0605,0.728629 -0.126953,0.888672 -0.06645,0.160043 -0.115529,0.204064 -0.208985,0.257812 -0.186911,0.107497 -0.707536,0.158204 -1.447265,0.158204 -0.760269,0 -1.294064,-0.05099 -1.486328,-0.160157 -0.09613,-0.05458 -0.146343,-0.0967 -0.212891,-0.255859 C 78.775249,53.729515 78.714847,53.44194 78.714844,53 v -3 a 0.69608192,0.69608192 0 0 0 -0.304688,-0.304688 z m -60.642578,0.732422 c -0.116708,5e-6 0.460735,0.04678 0.341797,0.02734 -0.118938,-0.01943 0.458719,0.123196 0.333984,0.08203 -0.124735,-0.04116 0.450303,0.197267 0.31836,0.13086 -0.131944,-0.06641 0.435103,0.272732 0.296875,0.177734 -0.138228,-0.095 0.417273,0.340673 0.27539,0.214844 -0.141882,-0.125829 0.393999,0.409429 0.251954,0.251953 -0.142046,-0.157476 0.367039,0.469871 0.228515,0.28125 -0.138524,-0.188621 0.338554,0.526812 0.207031,0.308594 -0.131522,-0.218218 0.303073,0.57948 0.181641,0.333984 -0.121432,-0.245496 0.266902,0.625374 0.158203,0.355469 -0.108699,-0.269905 0.228537,0.664103 0.134766,0.373047 -0.09377,-0.291057 0.188396,0.699298 0.111328,0.390625 -0.07707,-0.308673 0.146874,0.7249 0.08789,0.402343 -0.05898,-0.322556 0.102384,0.744676 0.0625,0.41211 -0.03988,-0.332566 0.05723,0.758531 0.03711,0.419922 -0.02012,-0.33861 0.01174,0.762507 0.01172,0.421875 1.9e-5,-0.340633 -0.03184,0.760484 -0.01172,0.421875 0.02012,-0.33861 -0.07699,0.752488 -0.03711,0.419922 0.03988,-0.332566 -0.121483,0.734665 -0.0625,0.412109 0.05898,-0.322556 -0.164959,0.711017 -0.08789,0.402344 0.07707,-0.308673 -0.205099,0.681681 -0.111328,0.390625 0.09377,-0.291057 -0.243465,0.642952 -0.134766,0.373047 0.108699,-0.269905 -0.279635,0.600964 -0.158203,0.355468 0.121432,-0.245495 -0.313163,0.552203 -0.181641,0.333985 0.131523,-0.218218 -0.345555,0.497215 -0.207031,0.308594 0.138524,-0.188622 -0.370561,0.438725 -0.228515,0.28125 0.142045,-0.157476 -0.393836,0.377781 -0.251954,0.251953 0.141883,-0.125829 -0.413618,0.309841 -0.27539,0.214843 0.138228,-0.095 -0.428819,0.244142 -0.296875,0.177735 0.131943,-0.06641 -0.443095,0.172024 -0.31836,0.130859 0.124735,-0.04116 -0.452922,0.101465 -0.333984,0.08203 0.118938,-0.01943 -0.458505,0.02734 -0.341797,0.02734 0.116709,-4e-6 -0.460735,-0.04678 -0.341797,-0.02734 0.118938,0.01943 -0.458719,-0.123195 -0.333984,-0.08203 0.124735,0.04116 -0.450303,-0.197266 -0.318359,-0.130859 0.131943,0.06641 -0.435103,-0.272732 -0.296876,-0.177735 0.138228,0.095 -0.417273,-0.340672 -0.27539,-0.214843 0.141882,0.125828 -0.393999,-0.409429 -0.251953,-0.251953 0.142045,0.157475 -0.36704,-0.469872 -0.228516,-0.28125 0.138524,0.188621 -0.338554,-0.526812 -0.207031,-0.308594 0.131522,0.218218 -0.303072,-0.57948 -0.181641,-0.333985 0.121432,0.245496 -0.266902,-0.625373 -0.158203,-0.355468 0.108699,0.269905 -0.228537,-0.664104 -0.134766,-0.373047 0.09377,0.291056 -0.188396,-0.699298 -0.111328,-0.390625 0.07707,0.308673 -0.146874,-0.7249 -0.08789,-0.402344 0.05898,0.322556 -0.102384,-0.744675 -0.0625,-0.412109 0.03988,0.332566 -0.05723,-0.758532 -0.03711,-0.419922 0.02012,0.338609 -0.01174,-0.762508 -0.01172,-0.421875 -2e-5,0.340632 0.03183,-0.760485 0.01172,-0.421875 -0.02012,0.338609 0.07699,-0.752488 0.03711,-0.419922 -0.03988,0.332566 0.121483,-0.734666 0.0625,-0.41211 -0.05898,0.322557 0.164959,-0.711016 0.08789,-0.402343 -0.07707,0.308673 0.2051,-0.681682 0.111328,-0.390625 -0.09377,0.291056 0.243465,-0.642952 0.134766,-0.373047 -0.108699,0.269905 0.279635,-0.600965 0.158203,-0.355469 -0.121431,0.245496 0.313163,-0.552202 0.181641,-0.333984 -0.131523,0.218218 0.345555,-0.497215 0.207031,-0.308594 -0.138524,0.188621 0.370561,-0.438726 0.228516,-0.28125 -0.142046,0.157476 0.393835,-0.377782 0.251953,-0.251953 -0.141883,0.125829 0.413618,-0.309841 0.27539,-0.214844 -0.138227,0.095 0.428819,-0.244141 0.296876,-0.177734 -0.131944,0.06641 0.443094,-0.172024 0.318359,-0.13086 -0.124735,0.04116 0.452922,-0.101464 0.333984,-0.08203 -0.118938,0.01943 0.458506,-0.02734 0.341797,-0.02734 z m 6.785156,1.267578 c 0.64183,-0.0024 1.492188,0.746094 1.492188,0.746094 a 0.69608192,0.69608192 0 0 0 1.009766,-0.0098 l 0.580078,-0.623047 v 3.287109 C 27.386076,54.834785 27.139861,54.558641 26.861328,54.392578 26.061089,53.915472 25.203105,53.711834 24.90625,53.625 c -0.420671,-0.123054 -0.905767,-0.206588 -1.251953,-0.345703 -0.173093,-0.06956 -0.297799,-0.149987 -0.351563,-0.203125 -0.05376,-0.05314 -0.05356,-0.0502 -0.05664,-0.111328 -0.02802,-0.555996 0.116277,-0.794989 0.328125,-0.97461 0.211847,-0.179621 0.566822,-0.293457 0.978515,-0.294922 z m 22.365235,0 c 0.01467,-2.38e-4 0.04351,0 0.08203,0 h 1 c 0.441997,0 0.722936,0.06219 0.873047,0.128907 0.150111,0.06672 0.191159,0.110832 0.253906,0.236328 0.0805,0.161 0.08788,0.756584 0.113281,1.244141 h -3.484375 c 0.02412,-0.480632 0.03071,-1.067199 0.109375,-1.232422 0.06152,-0.129213 0.103344,-0.174436 0.240235,-0.240235 0.13689,-0.0658 0.396376,-0.130009 0.8125,-0.136719 z m 15.021484,0 c 0.01516,-2.46e-4 0.04153,0 0.08008,0 h 1 c 0.441999,0 0.722936,0.06219 0.873047,0.128907 0.150111,0.06672 0.191159,0.110833 0.253906,0.236328 0.0805,0.160999 0.08788,0.756584 0.113282,1.244141 h -3.482422 c 0.02427,-0.480398 0.03052,-1.067139 0.109375,-1.232422 0.06168,-0.129272 0.103048,-0.174338 0.240234,-0.240235 0.137187,-0.0659 0.396386,-0.130009 0.8125,-0.136719 z m 14.546875,2.533204 c 0.117493,0.472281 0.276319,0.871467 0.46875,1.148437 0.04778,0.06877 0.06059,0.04299 0.111328,0.101563 -0.05535,0.06697 -0.06875,0.03956 -0.121094,0.11914 -0.08702,0.132295 -0.153364,0.338889 -0.230468,0.511719 V 55 a 0.69608192,0.69608192 0 0 0 -0.5,-0.5 0.69608192,0.69608192 0 0 0 0.271484,-0.271484 z m -54.878906,0.371093 c 0.249837,0.25329 0.512037,0.502756 0.802734,0.652344 0.758507,0.390317 1.583175,0.557673 2.109375,0.708985 0.504041,0.144939 0.955475,0.358691 1.234375,0.572265 0.278901,0.213574 0.343891,0.370036 0.34375,0.464844 -6.21e-4,0.407068 -0.10662,0.735236 -0.283203,0.941406 -0.176582,0.206171 -0.436949,0.365234 -1.021484,0.365235 -0.496855,0 -1.295044,-0.315698 -1.917969,-0.666016 -0.622925,-0.350318 -1.072266,-0.697266 -1.072266,-0.697266 a 0.69608192,0.69608192 0 0 0 -0.380859,-0.09766 c 0.143145,-0.591875 0.240236,-1.207258 0.240234,-1.832031 10e-7,-0.140569 -0.04726,-0.271992 -0.05469,-0.41211 z m 29.716797,0.771485 v 1.257812 A 0.69608192,0.69608192 0 0 0 51,56.304688 H 50 A 0.69608192,0.69608192 0 0 0 49.304688,57 c 0,0 -0.01074,0.355462 -0.177735,0.689453 C 48.959958,58.023444 48.767997,58.304688 48,58.304688 h -1 c -0.885464,0 -1.081657,-0.177742 -1.171875,-0.3125 C 45.737907,57.857429 45.695313,57.506307 45.695312,57 V 55.695312 H 51 a 0.69608192,0.69608192 0 0 0 0.324219,-0.324218 z m 15,0.01953 v 1.21875 a 0.69608192,0.69608192 0 0 0 -0.304688,-0.304687 h -1 A 0.69608192,0.69608192 0 0 0 64.324219,57 c 0,0 -0.01074,0.355462 -0.177735,0.689453 -0.166995,0.333991 -0.358956,0.615234 -1.126953,0.615235 h -1 c -0.885461,0 -1.081656,-0.177741 -1.171875,-0.3125 C 60.757437,57.857428 60.714844,57.506306 60.714844,57 v -1.304688 h 5.304687 a 0.69608192,0.69608192 0 0 0 0.304688,-0.304687 z m -52.298828,0.779297 c 0.146312,0.976651 0.408244,1.918597 0.898437,2.664062 0.493047,0.749805 1.200143,1.209508 1.958984,1.470704 h -6.863281 c 0.409164,-0.147085 0.831646,-0.319783 1.257813,-0.59375 1.041679,-0.669657 2.028684,-1.815653 2.748047,-3.541016 z m 66.240234,0.52539 c 0.0858,-4.6e-4 0.177973,0 0.275391,0 0.739721,-1e-6 1.260351,0.05071 1.447265,0.158204 0.09346,0.05375 0.142533,0.09777 0.208985,0.257812 0.06645,0.160043 0.126953,0.446624 0.126953,0.888672 v 7 c 0,0.44204 -0.0606,0.729669 -0.126953,0.888672 -0.06635,0.159003 -0.114202,0.200073 -0.208985,0.253906 -0.189565,0.107666 -0.720326,0.158032 -1.474609,0.15625 -0.747554,-0.0018 -1.274591,-0.05121 -1.462891,-0.158203 -0.09415,-0.05349 -0.142809,-0.09546 -0.208984,-0.253906 C 78.775621,65.728275 78.714844,65.441994 78.714844,65 v -7 c 0,-0.828674 0.149695,-1.019854 0.304687,-1.125 0.154992,-0.105146 0.583946,-0.176127 1.246094,-0.179688 z m -59.728516,2.212891 c 0.09928,0.07643 0.525712,0.414644 1.261719,0.826172 0.359717,0.20113 0.779163,0.399639 1.216797,0.570313 h -4.363281 c 0.727825,-0.25052 1.397357,-0.691477 1.884765,-1.396485 z m 7.097657,0.550781 V 60 a 0.69608192,0.69608192 0 0 0 0.304687,0.304688 h -1.412109 c 0.33293,-0.152077 0.6639,-0.310809 0.925781,-0.564454 0.07966,-0.07716 0.110813,-0.19579 0.181641,-0.28125 z m 8.390625,0.203125 c 0.184234,0.189752 0.322233,0.454306 0.542968,0.574219 0.908415,0.493491 1.903783,0.458985 2.664063,0.458984 0.717165,0 1.298879,-0.204391 1.783203,-0.435546 V 65 c 0,0.442039 -0.0606,0.729669 -0.126953,0.888672 -0.06635,0.159003 -0.114202,0.200073 -0.208984,0.253906 -0.189566,0.107666 -0.720327,0.158032 -1.47461,0.15625 -0.747553,-0.0018 -1.274591,-0.05121 -1.46289,-0.158203 -0.09415,-0.05349 -0.142809,-0.09546 -0.208985,-0.253906 C 37.467028,65.728275 37.40625,65.441994 37.40625,65 V 62 A 0.69608192,0.69608192 0 0 0 36.710938,61.304688 H 35.714844 V 61 A 0.69608192,0.69608192 0 0 0 35.371094,60.65625 0.69608192,0.69608192 0 0 0 36.025391,60 Z"
       transform="matrix(0.26458333,0,0,0.26458333,0.56047118,-9.2200605)" />
    <g
       id="g44326">
      <path
         id="path1018"
         style="fill:#5da8ef;fill-opacity:1;stroke:#000000;stroke-width:0.0649998;stroke-linecap:butt;stroke-linejoin:miter;stroke-miterlimit:4;stroke-dasharray:none;stroke-opacity:1"
         d="M 2.7467941,6.3501298 V 1.5876667 c 0,0 1.3229166,0 1.3229166,2.3812315 0,2.3812316 -1.3229166,2.3812316 -1.3229166,2.3812316 z M 2.4822107,1.3230852 v 5.2916261 c 0,0 1.8520834,0.2645818 1.8520834,-2.6458131 0,-2.9103942 -1.8520834,-2.645813 -1.8520834,-2.645813 z" />
      <path
         id="path1179"
         style="opacity:0.995271;fill:#5da8ef;fill-opacity:1;stroke:#000000;stroke-width:0.0649999;stroke-miterlimit:4;stroke-dasharray:none;stroke-opacity:1"
         d="m 5.2250038,4.0076552 a 0.84661972,1.2872563 0 0 0 -0.84646,1.2872502 0.84661972,1.2872563 0 0 0 0.84646,1.2872503 A 0.84661972,1.2872563 0 0 0 6.0714639,5.2949054 0.84661972,1.2872563 0 0 0 5.2250038,4.0076552 Z m 0,0.2583796 A 0.62010395,1.0289763 0 0 1 5.845121,5.2949054 0.62010395,1.0289763 0 0 1 5.2250038,6.3237754 0.62010395,1.0289763 0 0 1 4.6048867,5.2949054 0.62010395,1.0289763 0 0 1 5.2250038,4.2660348 Z" />
      <path
         style="fill:#5da8ef;fill-opacity:1;stroke:#000000;stroke-width:0.0649998;stroke-linecap:butt;stroke-linejoin:miter;stroke-miterlimit:4;stroke-dasharray:none;stroke-opacity:1"
         d="m 7.0835742,6.3501301 c 0.3888683,0 0.5287562,-0.2519747 0.5291667,-0.5291627 C 7.613041,5.6182873 7.3618863,5.4554786 7.0622565,5.3693185 6.7626267,5.2831584 6.2419027,5.1917142 6.2259698,4.7626422 6.2100368,4.3335701 6.5169034,3.9698085 7.0197198,3.9688982 7.5225362,3.9679883 7.7212475,4.2996893 7.7212475,4.2996893 l -0.174114,0.1871539 c 0,0 -0.2462059,-0.2543861 -0.5274137,-0.2533631 -0.2812078,0.00102 -0.5484199,0.1470622 -0.5291667,0.5291627 0.012574,0.249554 0.39195,0.2895136 0.5717034,0.3420951 C 7.2420099,5.15732 7.8755447,5.3052056 7.8773242,5.820968 7.8791042,6.3367294 7.5591034,6.6216956 7.0835742,6.6147119 6.608045,6.6077276 6.0351246,6.1578577 6.0351246,6.1578577 L 6.1800852,5.9510176 c 0,0 0.5146208,0.3991125 0.903489,0.3991125 z"
         id="path1389" />
      <path
         style="fill:#5da8ef;fill-opacity:1;stroke:#000000;stroke-width:0.0649998;stroke-linecap:butt;stroke-linejoin:miter;stroke-miterlimit:4;stroke-dasharray:none;stroke-opacity:1"
         d="M 8.0197339,6.6147119 V 1.3230855 h 1.8520834 v 0.2645818 h -1.5875 V 3.439737 h 0.79375 v 0.2645819 h -0.79375 v 2.6458127 h 1.5875 v 0.2645819 z"
         id="path12188" />
      <path
         style="fill:#5da8ef;fill-opacity:1;stroke:#000000;stroke-width:0.0649998;stroke-linecap:butt;stroke-linejoin:miter;stroke-miterlimit:4;stroke-dasharray:none;stroke-opacity:1"
         d="m 9.9727301,3.9688982 1e-7,1.8520692 c 0,0.7937439 0.5291758,0.7937439 0.9314888,0.7937439 0.391438,0 0.656021,-0.2645818 0.656021,-0.2645818 v 1.5874876 c 0,0.5291627 -0.264583,0.5285376 -0.663731,0.5275948 -0.394605,-9.323e-4 -0.65919,0.00157 -0.65919,-0.5275948 0,-0.2645819 -2.5e-5,-0.7937458 -2.5e-5,-0.7937458 H 9.9727301 l -2e-7,0.7937458 c 3e-7,0.7937439 0.5291731,0.7921739 0.9237801,0.7921739 0.399147,0 0.928314,0.00157 0.928314,-0.7921739 l 1e-6,-1.3229086 V 5.8209664 3.9688982 h -0.264584 v 1.8520692 c 0,0.2645818 -0.229129,0.5182475 -0.656025,0.5291624 -0.40231,0 -0.666897,3e-7 -0.666901,-0.5291624 l 10e-7,-1.8520692 z"
         id="path12303" />
      <path
         id="path26151"
         style="fill:#5da8ef;fill-opacity:1;stroke:#000000;stroke-width:0.0649999;stroke-linecap:butt;stroke-linejoin:miter;stroke-miterlimit:4;stroke-dasharray:none;stroke-opacity:1"
         d="m 12.959416,3.9688985 c -0.79375,0 -0.79375,0.5291628 -0.79375,0.7937437 v 1.0583255 c 0,0.2645818 0,0.7937439 0.79375,0.7937439 h 0.264583 c 0.79375,0 0.79375,-0.7937439 0.79375,-0.7937439 h -0.264583 c 0,0 0,0.5291624 -0.529167,0.5291624 h -0.264583 c -0.529168,0 -0.529167,-0.2612427 -0.529167,-0.5291624 V 5.2918049 h 1.5875 c 0,-0.7937439 -1e-6,-1.3229064 -0.79375,-1.3229064 z m -0.0248,0.2645819 c 0.008,-1.294e-4 0.01654,0 0.0248,0 h 0.264583 c 0.529166,0 0.529167,0.2645818 0.529167,0.7937439 h -1.322917 c 10e-7,-0.5208946 -3.97e-4,-0.7856049 0.504362,-0.7937439 z" />
      <path
         style="fill:#5da8ef;fill-opacity:1;stroke:#000000;stroke-width:0.0649998;stroke-linecap:butt;stroke-linejoin:miter;stroke-miterlimit:4;stroke-dasharray:none;stroke-opacity:1"
         d="M 14.2875,6.6147119 V 1.3230855 h 0.264583 L 15.08125,2.9105731 15.610417,1.3230855 H 15.875 V 6.6147119 H 15.610417 V 2.1168291 l -0.529167,1.322907 -0.529167,-1.322907 v 4.4978828 z"
         id="path31427" />
      <path
         id="path31513"
         style="fill:#5da8ef;fill-opacity:1;stroke:#000000;stroke-width:0.0649999;stroke-linecap:butt;stroke-linejoin:miter;stroke-miterlimit:4;stroke-dasharray:none;stroke-opacity:1"
         d="m 16.933333,3.9688985 c -0.79375,0 -0.79375,0.5291628 -0.79375,0.7937437 v 1.0583255 c 0,0.2645818 0,0.7937439 0.79375,0.7937439 h 0.264583 c 0.79375,0 0.79375,-0.7937439 0.79375,-0.7937439 h -0.264583 c 0,0 0,0.5291624 -0.529167,0.5291624 h -0.264583 c -0.529167,0 -0.529167,-0.2612427 -0.529167,-0.5291624 V 5.2918049 h 1.5875 c 0,-0.7937439 0,-1.3229064 -0.79375,-1.3229064 z m -0.02429,0.2645819 c 0.008,-1.294e-4 0.01602,0 0.02429,0 h 0.264583 c 0.529167,0 0.529167,0.2645818 0.529167,0.7937439 h -1.322917 c 0,-0.5208946 1.31e-4,-0.7856049 0.504879,-0.7937439 z" />
      <path
         style="fill:#ef746e;fill-opacity:1;stroke:#000000;stroke-width:0.0649998;stroke-linecap:butt;stroke-linejoin:miter;stroke-miterlimit:4;stroke-dasharray:none;stroke-opacity:1"
         d="M 18.25625,6.6147113 V 3.704317 H 16.139583 V 3.4397352 h 2.116667 v -2.11665 h 0.264583 v 2.1166506 h 4.233334 v 0.2645818 h -4.233334 v 2.9103943 z"
         id="path31552" />
      <path
         style="fill:#5da8ef;fill-opacity:1;stroke:#000000;stroke-width:0.0649998;stroke-linecap:butt;stroke-linejoin:miter;stroke-miterlimit:4;stroke-dasharray:none;stroke-opacity:1"
         d="M 18.785416,6.6147113 V 3.9688982 H 19.05 V 4.498061 c 0,0 0.264583,-0.5291628 0.79375,-0.5291628 0.79375,0 0.79375,0.793744 0.79375,0.793744 l 1e-6,0.2645818 H 20.372917 V 4.7626422 c 0,0 0,-0.5291627 -0.529167,-0.5291627 -0.529167,0 -0.79375,0.7937439 -0.79375,0.7937439 v 1.5874879 z"
         id="path31667" />
      <path
         style="fill:#5da8ef;fill-opacity:1;stroke:#000000;stroke-width:0.0649998;stroke-linecap:butt;stroke-linejoin:miter;stroke-miterlimit:4;stroke-dasharray:none;stroke-opacity:1"
         d="M 20.372916,5.2918046 H 20.6375 v 1.3229067 h -0.264584 z"
         id="path33435" />
      <path
         style="fill:#5da8ef;fill-opacity:1;stroke:#000000;stroke-width:0.0649998;stroke-linecap:butt;stroke-linejoin:miter;stroke-miterlimit:4;stroke-dasharray:none;stroke-opacity:1"
         d="m 21.833564,5.5563852 c 0.391438,-6e-7 0.656021,3e-7 0.656021,0.5291628 l 10e-7,1.8520697 c 0,0.5291627 -0.264583,0.5285376 -0.663731,0.5275948 -0.394605,-9.323e-4 -0.659188,0.00157 -0.659188,-0.5275948 0,-0.2645818 2e-6,-1.8520688 2e-6,-1.8520688 0,-0.5291628 0.264583,-0.5291628 0.666895,-0.5291637 z m -0.931481,2.3812325 c 10e-7,0.7937439 0.529166,0.7921739 0.923773,0.7921739 0.399147,0 0.928314,0.00157 0.928314,-0.7921739 l 0.0014,-1.4509664 0.0014,-0.3926414 c 0.0019,-0.5376238 -0.288221,-0.6656843 -0.288221,-0.6656843 0,0 0.285421,-0.1365194 0.285421,-0.6656843 l -2e-6,-0.7937431 h -0.264584 l 2e-6,0.793744 c -10e-7,0.5291627 -0.264583,0.5291627 -0.656025,0.5291624 -0.40231,0 -0.666895,3e-7 -0.666899,-0.5291624 l -10e-7,-0.793744 h -0.26458 l 3e-6,0.793744 c 2e-6,0.5291627 0.268405,0.6506512 0.268405,0.6506512 0,0 -0.268403,0.1430934 -0.268403,0.6722555 z"
         id="path33539" />
      <path
         style="fill:#ef746e;fill-opacity:1;stroke:#000000;stroke-width:0.0649998;stroke-linecap:butt;stroke-linejoin:miter;stroke-miterlimit:4;stroke-dasharray:none;stroke-opacity:1"
         d="M 2.3812498,7.143874 V 6.8792922 H 9.7895831 V 7.143874 Z"
         id="path41111" />
    </g>
  </g>
</svg>
